<svg width="62" height="62" xmlns="http://www.w3.org/2000/svg"><g transform="translate(1 1)" fill="none" fill-rule="evenodd"><path d="M30.5 28.855c-.907 0-1.645.738-1.645 1.645s.738 1.645 1.645 1.645 1.645-.738 1.645-1.645-.738-1.645-1.645-1.645zm0 2.265a.62.62 0 11.001-1.241.62.62 0 01-.001 1.24z" fill="#FFF" fill-rule="nonzero"/><path d="M46.355 28.855h-2.989a12.907 12.907 0 00-2.61-6.285l2.118-2.118a1.647 1.647 0 00-1.163-2.808c-.44 0-.853.17-1.163.482l-2.118 2.118a12.907 12.907 0 00-6.285-2.61v-2.989c0-.907-.738-1.645-1.645-1.645s-1.645.738-1.645 1.645v2.989c-.8.101-1.587.276-2.353.524a.513.513 0 10.316.976 11.938 11.938 0 014.789-.527c6.07.56 10.838 5.68 10.838 11.893a12.033 12.033 0 01-.052 1.107c-.527 5.705-5.082 10.26-10.787 10.786a12.046 12.046 0 01-1.106.052c-6.213 0-11.333-4.77-11.893-10.839a12.047 12.047 0 01-.052-1.106c0-2.828.988-5.492 2.718-7.592l.017-.016a.513.513 0 00.072-.09 11.922 11.922 0 011.529-1.513 12.05 12.05 0 012.089-1.384.513.513 0 10-.475-.91c-.69.361-1.339.778-1.94 1.243l-2.113-2.112a1.634 1.634 0 00-1.163-.482c-.44 0-.853.171-1.163.482-.311.31-.482.724-.482 1.163 0 .44.171.853.482 1.163l2.11 2.11a12.921 12.921 0 00-2.602 6.293h-2.989c-.907 0-1.645.738-1.645 1.645s.738 1.645 1.645 1.645h2.989a12.908 12.908 0 002.61 6.285l-2.118 2.118c-.311.31-.482.724-.482 1.163 0 .44.171.853.482 1.163.31.311.724.482 1.163.482.44 0 .853-.17 1.163-.482l2.118-2.118a12.907 12.907 0 006.285 2.61v2.989c0 .907.738 1.645 1.645 1.645s1.645-.738 1.645-1.645v-2.989a12.908 12.908 0 006.285-2.61l2.118 2.118c.31.311.724.482 1.163.482a1.647 1.647 0 001.163-2.808l-2.118-2.118a12.907 12.907 0 002.61-6.285h2.989c.907 0 1.645-.738 1.645-1.645s-.738-1.645-1.645-1.645zM31.12 17.545a13.127 13.127 0 00-1.24 0v-2.9a.62.62 0 011.24 0v2.9zm8.098 3.36l2.055-2.054a.616.616 0 01.876 0 .616.616 0 010 .876l-2.054 2.055a12.73 12.73 0 00-.877-.877zm-20.367-1.178a.616.616 0 010-.876.616.616 0 01.876 0l2.048 2.047c-.308.279-.6.571-.878.876l-2.046-2.047zM14.645 31.12a.62.62 0 010-1.24h2.9a13.147 13.147 0 000 1.24h-2.9zm5.082 11.03a.616.616 0 01-.876 0 .616.616 0 010-.877l2.054-2.055c.278.306.57.599.877.877l-2.055 2.054zm11.393 4.205a.62.62 0 01-1.24 0v-2.9a13.127 13.127 0 001.24 0v2.9zm11.03-5.082a.62.62 0 01-.877.876l-2.055-2.054c.306-.278.599-.571.877-.877l2.054 2.055zm4.205-10.153h-2.9a13.127 13.127 0 000-1.24h2.9a.62.62 0 010 1.24z" fill="#FFF" fill-rule="nonzero"/><path d="M41.141 29.332a10.654 10.654 0 00-2.236-5.454.514.514 0 00-.078-.103l-.014-.012a10.8 10.8 0 00-1.575-1.575l-.013-.014a.51.51 0 00-.102-.079 10.654 10.654 0 00-6.623-2.3 10.77 10.77 0 00-1.213.07 10.654 10.654 0 00-5.41 2.23.501.501 0 00-.102.079l-.013.014a10.8 10.8 0 00-1.574 1.575l-.014.012a.514.514 0 00-.079.102 10.654 10.654 0 00-2.3 6.623 10.776 10.776 0 00.069 1.21 10.654 10.654 0 002.23 5.412.513.513 0 00.08.103l.014.013c.469.577.997 1.105 1.574 1.574l.013.015a.514.514 0 00.103.079 10.654 10.654 0 006.622 2.3 10.776 10.776 0 001.21-.07 10.654 10.654 0 005.412-2.23.517.517 0 00.103-.08l.013-.014a10.798 10.798 0 001.574-1.574l.015-.013a.512.512 0 00.079-.103 10.654 10.654 0 002.3-6.622c0-.395-.023-.784-.065-1.168zm-2.735-4.411a9.628 9.628 0 011.633 3.934h-5.567l3.934-3.934zm-.64-.81l-4.1 4.099a3.944 3.944 0 00-.876-.877l4.099-4.098c.31.273.603.566.876.876zm-5.62-3.15a9.63 9.63 0 013.933 1.633l-3.934 3.934v-5.567zm-2.266-.12a9.796 9.796 0 011.24 0v5.798a3.918 3.918 0 00-1.24 0v-5.798zm-1.025.12v5.567l-3.934-3.934a9.63 9.63 0 013.934-1.633zm-4.744 2.274l4.099 4.098c-.336.244-.633.54-.877.877l-4.098-4.099c.273-.31.566-.603.876-.876zm-1.517 1.686l3.934 3.934h-5.567a9.63 9.63 0 011.633-3.934zM20.82 30.5c0-.208.008-.415.02-.62h5.8a3.918 3.918 0 000 1.24h-5.8a9.747 9.747 0 01-.02-.62zm1.774 5.58a9.63 9.63 0 01-1.633-3.935h5.567l-3.934 3.934zm.64.809l4.1-4.099c.244.336.54.633.876.877l-4.099 4.098a9.767 9.767 0 01-.876-.876zm5.62 3.15a9.63 9.63 0 01-3.933-1.633l3.934-3.934v5.567zm2.266.12a9.798 9.798 0 01-1.24 0v-5.798a3.918 3.918 0 001.24 0v5.798zm-.62-6.774a2.888 2.888 0 01-2.885-2.885 2.888 2.888 0 012.885-2.885 2.888 2.888 0 012.885 2.885 2.888 2.888 0 01-2.885 2.885zm1.645 6.654v-5.567l3.934 3.934a9.63 9.63 0 01-3.934 1.633zm4.744-2.274l-4.1-4.098c.337-.244.633-.54.877-.877l4.1 4.099a9.75 9.75 0 01-.877.876zm1.517-1.686l-3.934-3.934h5.567a9.629 9.629 0 01-1.633 3.934zm1.753-4.96h-5.798a3.918 3.918 0 000-1.239h5.798a9.798 9.798 0 010 1.24z" fill="#FFF" fill-rule="nonzero"/><circle stroke="#FFF" cx="30" cy="30" r="30"/></g></svg>