<svg width="62" height="62" xmlns="http://www.w3.org/2000/svg"><g transform="translate(1 1)" fill="none" fill-rule="evenodd"><circle stroke="#FFF" cx="30" cy="30" r="30"/><path d="M27.71 43.837h-4.408v-.228c.965-.053 3.12-.34 4.43-1.804 1.57-1.757 1.273-4.523 1.192-5.088a.579.579 0 00-.548-.545 6.016 6.016 0 00-.44-.003c1.338-1.759 1.066-4.3.988-4.838a.579.579 0 00-.548-.546 6.005 6.005 0 00-.444-.003c1.343-1.759 1.07-4.303.992-4.843a.579.579 0 00-.548-.545 6.033 6.033 0 00-.441-.003c1.34-1.759 1.067-4.301.988-4.84a.579.579 0 00-.547-.545c-.135-.008-3.304-.16-5.01 1.748a4.176 4.176 0 00-.642.969 4.176 4.176 0 00-.642-.969c-1.705-1.908-4.875-1.756-5.009-1.748a.581.581 0 00-.547.539c-.077.525-.357 3.08.988 4.846a5.975 5.975 0 00-.44.003.581.581 0 00-.548.539c-.077.525-.357 3.083.99 4.849a6.024 6.024 0 00-.443.003.581.581 0 00-.547.54c-.077.524-.357 3.078.987 4.843a5.995 5.995 0 00-.44.004.581.581 0 00-.547.539c-.08.55-.385 3.33 1.191 5.094 1.307 1.461 3.457 1.75 4.423 1.804v.228h-6.559a.581.581 0 000 1.163H27.71a.581.581 0 000-1.163zM24.232 22.53c.986-1.103 2.737-1.32 3.588-1.358.057.84.036 2.584-.956 3.693-.982 1.099-2.686 1.353-3.525 1.411-.076-.86-.092-2.645.893-3.746zm2.632 7.723c-.982 1.099-2.686 1.354-3.525 1.411-.076-.86-.091-2.644.893-3.746.986-1.103 2.737-1.32 3.588-1.358.057.84.036 2.584-.956 3.693zm-2.632 3.057c.986-1.103 2.737-1.32 3.588-1.358.057.84.036 2.584-.956 3.692-.408.457-.941.768-1.485.98a7.278 7.278 0 01-2.04.432c-.076-.86-.092-2.645.893-3.746zm0 5.387c.986-1.104 2.737-1.32 3.588-1.359.057.84.036 2.584-.956 3.693-.982 1.099-2.686 1.354-3.525 1.411-.076-.86-.092-2.644.893-3.745zM17.628 21.17c.849.036 2.597.25 3.588 1.36.984 1.1.968 2.885.892 3.745-.837-.057-2.542-.312-3.525-1.411-.991-1.11-1.012-2.855-.955-3.694zm0 5.388c.849.036 2.597.25 3.588 1.36.984 1.1.969 2.885.892 3.745-.837-.057-2.541-.312-3.525-1.41-.991-1.11-1.012-2.856-.955-3.695zm0 5.392c.849.036 2.597.25 3.588 1.359.984 1.101.968 2.885.892 3.746a7.28 7.28 0 01-2.041-.433c-.543-.212-1.076-.522-1.484-.978-.991-1.11-1.012-2.855-.955-3.694zm4.48 10.492c-.837-.058-2.541-.313-3.525-1.412-.99-1.109-1.012-2.853-.955-3.693.85.038 2.602.255 3.588 1.359.984 1.1.969 2.885.892 3.746z" fill="#FFF" fill-rule="nonzero"/><path d="M22.5 17c-.276 0-.5.24-.5.535v1.93c0 .296.224.535.5.535s.5-.24.5-.535v-1.93c0-.296-.224-.535-.5-.535zm0-2c-.276 0-.5.223-.5.497v.006a.499.499 0 001 0v-.006a.499.499 0 00-.5-.497zm-2 2c-.276 0-.5.298-.5.665v1.67c0 .367.224.665.5.665s.5-.298.5-.665v-1.67c0-.367-.224-.665-.5-.665zm0-1c-.276 0-.5.223-.5.497v.006a.499.499 0 001 0v-.006a.499.499 0 00-.5-.497zm5 1c-.276 0-.5.298-.5.665v1.67c0 .367.224.665.5.665s.5-.298.5-.665v-1.67c0-.367-.224-.665-.5-.665zm0-1c-.276 0-.5.223-.5.497v.006a.499.499 0 001 0v-.006a.499.499 0 00-.5-.497zm12 6c-.276 0-.5.24-.5.535v1.93c0 .296.224.535.5.535s.5-.24.5-.535v-1.93c0-.296-.224-.535-.5-.535zm0-1c-.276 0-.5.223-.5.497v.006a.499.499 0 001 0v-.006a.499.499 0 00-.5-.497zm-3 2c-.276 0-.5.298-.5.665v1.67c0 .367.224.665.5.665s.5-.298.5-.665v-1.67c0-.367-.224-.665-.5-.665zm0-2c-.276 0-.5.223-.5.497v.006a.499.499 0 001 0v-.006a.499.499 0 00-.5-.497zm5 2c-.276 0-.5.298-.5.665v1.67c0 .367.224.665.5.665s.5-.298.5-.665v-1.67c0-.367-.224-.665-.5-.665zm0-2c-.276 0-.5.223-.5.497v.006a.499.499 0 001 0v-.006a.499.499 0 00-.5-.497zm-9.997 23h-.006a.498.498 0 00-.497.5c0 .276.222.5.497.5h.006a.498.498 0 00.497-.5c0-.276-.222-.5-.497-.5z" fill="#FFF" fill-rule="nonzero"/><path d="M44.42 43.814h-6.57v-.232c.964-.054 3.118-.347 4.427-1.84 1.57-1.792 1.273-4.613 1.191-5.189a.581.581 0 00-.548-.556 5.893 5.893 0 00-.439-.003c1.338-1.794 1.065-4.384.987-4.934a.581.581 0 00-.548-.556 5.883 5.883 0 00-.443-.003c1.342-1.794 1.07-4.39.991-4.94a.581.581 0 00-.548-.556c-.133-.007-3.301-.162-5.006 1.784a4.266 4.266 0 00-.642.988 4.266 4.266 0 00-.642-.988c-1.704-1.946-4.872-1.79-5.006-1.783a.581.581 0 00-.547.55c-.077.535-.357 3.144.99 4.945a5.9 5.9 0 00-.443.003.581.581 0 00-.547.55c-.076.535-.356 3.139.986 4.94a5.835 5.835 0 00-.439.003.581.581 0 00-.547.55c-.08.56-.385 3.396 1.19 5.195 1.307 1.49 3.456 1.784 4.422 1.84v.232h-4.737c-.32 0-.58.266-.58.593 0 .328.26.593.58.593H44.42a.587.587 0 00.581-.593.587.587 0 00-.58-.593zM38.78 27.58c.986-1.125 2.736-1.346 3.586-1.385.057.856.036 2.635-.955 3.766-.982 1.12-2.685 1.38-3.523 1.44-.076-.878-.092-2.698.892-3.82zm0 5.498c.986-1.125 2.736-1.346 3.586-1.385.057.857.036 2.635-.955 3.766-.408.466-.941.783-1.485.999a7.147 7.147 0 01-2.038.44c-.076-.877-.092-2.696.892-3.82zm0 5.494c.986-1.126 2.736-1.347 3.586-1.385.057.856.036 2.635-.955 3.765-.982 1.121-2.685 1.381-3.523 1.44-.076-.878-.092-2.697.892-3.82zm-6.602-12.378c.85.037 2.596.255 3.587 1.386.983 1.123.968 2.943.891 3.82-.836-.058-2.54-.318-3.523-1.439-.99-1.131-1.012-2.911-.955-3.767zm0 5.498c.85.037 2.596.256 3.587 1.386.983 1.124.968 2.943.891 3.82a7.147 7.147 0 01-2.04-.441c-.542-.216-1.075-.532-1.483-.998-.99-1.131-1.012-2.91-.955-3.767zm4.479 10.7c-.837-.059-2.541-.318-3.524-1.44-.99-1.13-1.012-2.909-.955-3.765.85.038 2.6.26 3.587 1.385.984 1.123.968 2.942.892 3.82z" fill="#FFF" fill-rule="nonzero"/></g></svg>