<svg width="62" height="62" xmlns="http://www.w3.org/2000/svg"><g transform="translate(1 1)" fill="none" fill-rule="evenodd"><circle stroke="#FFF" cx="30" cy="30" r="30"/><path d="M46.474 24.846l-18.342-3.832a.684.684 0 00-.073-.01l-.013-.001a.658.658 0 00-.052-.003h-14.33a.658.658 0 00-.664.65v5.465c0 .36.297.65.664.65a.658.658 0 00.664-.65v-4.814h5.837v3.293h-.456a.658.658 0 00-.664.65c0 .36.297.65.664.65h.456v5.647h-.456a.657.657 0 00-.664.65c0 .36.297.651.664.651h.456v3.293h-5.837V32.32a.657.657 0 00-.664-.651.658.658 0 00-.664.65v5.465c0 .36.297.65.664.65h32.672a.658.658 0 00.664-.65V25.482a.654.654 0 00-.526-.636zm-24.981 8.996h.456a.658.658 0 00.664-.65.657.657 0 00-.664-.651h-.456v-5.646h.456a.658.658 0 00.664-.65.658.658 0 00-.664-.652h-.456v-3.292h5.837v14.833h-5.837v-3.292zm24.179 3.292H28.658v-14.68l17.014 3.555v11.125z" fill="#FFF" fill-rule="nonzero"/><path d="M39.154 35.82c.481 0 .872-.291.872-.65v-8.288c0-.36-.39-.651-.872-.651s-.872.291-.872.651v8.287c0 .36.39.652.872.652zm3.487 0c.482 0 .872-.288.872-.644v-7.429c0-.356-.39-.644-.872-.644-.481 0-.872.288-.872.644v7.429c0 .356.39.645.872.645zm-6.974 0c.481 0 .871-.294.871-.656v-9.148c0-.363-.39-.657-.871-.657-.482 0-.872.294-.872.657v9.148c0 .362.39.657.872.657zm-4.359 0c.481 0 .871-.296.871-.661v-10.01c0-.366-.39-.662-.871-.662-.482 0-.872.296-.872.662v10.01c0 .365.39.662.872.662zm-17.436-5.23c.48 0 .872-.196.872-.436s-.392-.436-.872-.436-.872.196-.872.436.392.436.872.436z" fill="#FFF" fill-rule="nonzero"/></g></svg>