<svg width="62" height="62" xmlns="http://www.w3.org/2000/svg"><g transform="translate(1 1)" fill="none" fill-rule="evenodd"><path d="M20.002 43.25a1.752 1.752 0 001.75 1.75h16.496a1.746 1.746 0 00.25-3.475v-4.55a1.741 1.741 0 000-3.45v-4.55a1.742 1.742 0 000-3.45v-4.55a1.746 1.746 0 00-.25-3.475H28.5v-1A1.5 1.5 0 0027 15h-2.5c-.827 0-1.498.672-1.499 1.5v1h-1.25a1.746 1.746 0 00-.25 3.475v4.55a1.741 1.741 0 000 3.45v4.55a1.742 1.742 0 000 3.45v4.55a1.747 1.747 0 00-1.5 1.725zm18.996 0a.75.75 0 01-.75.75H21.752a.75.75 0 010-1.5h16.496a.75.75 0 01.75.75zM22.501 37H37.5v4.5h-15V37zm0-3.5V29H37.5v4.5h-15zm0-8V21H37.5v4.5h-15zm1.5-9a.5.5 0 01.5-.5H27a.5.5 0 01.5.5v1H24v-1zm-3 2.75a.75.75 0 01.75-.75h16.497a.75.75 0 010 1.5H21.752a.75.75 0 01-.75-.75zm0 8a.75.75 0 01.75-.75h16.497a.75.75 0 010 1.5H21.752a.75.75 0 01-.75-.75zm0 8a.75.75 0 01.75-.75h16.497a.75.75 0 010 1.5H21.752a.75.75 0 01-.75-.75z" fill="#FFF" fill-rule="nonzero"/><path d="M24.333 22h-.666c-.369 0-.667.224-.667.5s.298.5.667.5h.666c.369 0 .667-.224.667-.5s-.298-.5-.667-.5zm6.111 0h-3.888c-.307 0-.556.224-.556.5s.249.5.556.5h3.888c.307 0 .556-.224.556-.5s-.249-.5-.556-.5z" fill="#FFF" fill-rule="nonzero"/><circle stroke="#FFF" cx="30" cy="30" r="30"/></g></svg>