<?xml version="1.0" encoding="utf-8"?>
<!-- Generator: Adobe Illustrator 26.0.1, SVG Export Plug-In . SVG Version: 6.00 Build 0)  -->
<svg version="1.1" id="Layer_1" xmlns="http://www.w3.org/2000/svg" xmlns:xlink="http://www.w3.org/1999/xlink" x="0px" y="0px"
	 width="62px" height="62px" viewBox="0 0 62 62" enable-background="new 0 0 62 62" xml:space="preserve">
<g transform="translate(1 1)">
	<circle fill="none" stroke="#FFFFFF" cx="30" cy="30" r="30"/>
</g>
<g>
	<path fill="#FFFFFF" d="M44.1,42c-0.9,0-1.7-0.7-1.7-1.7h-0.5h-0.5c0,0.9-0.8,1.7-1.7,1.7S38,41.3,38,40.3h-0.5h-0.5
		c0,0.9-0.8,1.7-1.7,1.7c-0.9,0-1.7-0.7-1.7-1.7h-0.5h-0.5c0,0.9-0.8,1.7-1.7,1.7s-1.7-0.7-1.7-1.7h-0.5h-0.5c0,1-0.7,1.7-1.7,1.7
		c-1,0-1.7-0.7-1.7-1.7h-1c0,1-0.7,1.7-1.7,1.7c-1,0-1.7-0.7-1.7-1.7h-1c0,1-0.7,1.7-1.7,1.7c-1,0-1.7-0.7-1.7-1.7h-1
		c0,1.5,1.2,2.7,2.7,2.7c0.9,0,1.7-0.5,2.2-1.1c0.5,0.7,1.3,1.1,2.2,1.1c0.9,0,1.7-0.5,2.2-1.1c0.5,0.7,1.3,1.1,2.2,1.1
		c0.9,0,1.7-0.5,2.2-1.1c0.5,0.6,1.3,1.1,2.2,1.1s1.7-0.5,2.2-1.1c0.5,0.7,1.3,1.1,2.2,1.1c0.9,0,1.7-0.5,2.2-1.1
		c0.5,0.7,1.3,1.1,2.2,1.1c0.9,0,1.7-0.5,2.2-1.1c0.5,0.7,1.3,1.1,2.2,1.1c1.5,0,2.7-1.2,2.7-2.7h-1C45.8,41.2,45.1,42,44.1,42z"/>
	<path fill="#FFFFFF" d="M44.1,46.1c-0.9,0-1.7-0.7-1.7-1.7h-0.5h-0.5c0,0.9-0.8,1.7-1.7,1.7S38,45.4,38,44.4h-0.5h-0.5
		c0,0.9-0.8,1.7-1.7,1.7c-0.9,0-1.7-0.7-1.7-1.7h-0.5h-0.5c0,0.9-0.8,1.7-1.7,1.7s-1.7-0.7-1.7-1.7h-0.5h-0.5c0,1-0.7,1.7-1.7,1.7
		c-1,0-1.7-0.7-1.7-1.7h-1c0,1-0.7,1.7-1.7,1.7c-1,0-1.7-0.7-1.7-1.7h-1c0,1-0.7,1.7-1.7,1.7c-1,0-1.7-0.7-1.7-1.7h-1
		c0,1.5,1.2,2.7,2.7,2.7c0.9,0,1.7-0.5,2.2-1.1c0.5,0.7,1.3,1.1,2.2,1.1c0.9,0,1.7-0.5,2.2-1.1c0.5,0.7,1.3,1.1,2.2,1.1
		c0.9,0,1.7-0.5,2.2-1.1c0.5,0.6,1.3,1.1,2.2,1.1s1.7-0.5,2.2-1.1c0.5,0.7,1.3,1.1,2.2,1.1c0.9,0,1.7-0.5,2.2-1.1
		c0.5,0.7,1.3,1.1,2.2,1.1c0.9,0,1.7-0.5,2.2-1.1c0.5,0.7,1.3,1.1,2.2,1.1c1.5,0,2.7-1.2,2.7-2.7h-1C45.8,45.3,45.1,46.1,44.1,46.1z
		"/>
	<polygon fill="#FFFFFF" points="42.9,31 42.9,30 18.9,30 18.9,31 21.9,31 21.9,32 19.9,32 19.9,39 20.9,39 20.9,33 21.9,33 
		21.9,35 23,35 23,33 23.9,33 23.9,39 24.8,39 24.8,32 23,32 23,31 30.4,31 30.4,32 28.4,32 28.4,39 29.5,39 29.5,33 30.4,33 
		30.4,35 31.4,35 31.4,33 32.4,33 32.4,39 33.4,39 33.4,32 31.4,32 31.4,31 38.9,31 38.9,32 37,32 37,39 38,39 38,33 38.9,33 
		38.9,35 39.9,35 39.9,33 41,33 41,39 41.9,39 41.9,32 39.9,32 39.9,31 	"/>
	<rect x="18" y="28" fill="#FFFFFF" width="25.9" height="1"/>
	<polygon fill="#FFFFFF" points="28.9,27 28.9,23.1 20,23.1 20,27 21,27 21,24.1 27.9,24.1 27.9,27 	"/>
	<rect x="29.9" y="26" fill="#FFFFFF" width="7" height="1"/>
	<rect x="25.9" y="25" fill="#FFFFFF" width="1" height="1"/>
	<rect x="24" y="25" fill="#FFFFFF" width="1" height="1"/>
	<rect x="21.9" y="25" fill="#FFFFFF" width="1" height="1"/>
	<path fill="#FFFFFF" d="M29.9,19.1h-11v3h10.9L29.9,19.1z M28.9,21.1H20v-1.1h9L28.9,21.1z"/>
	<polygon fill="#FFFFFF" points="20.9,16 23,16 23,18.1 24,18.1 24,15 19.9,15 19.9,18.1 20.9,18.1 	"/>
	<polygon fill="#FFFFFF" points="25.9,16 27.9,16 27.9,18.1 28.9,18.1 28.9,15 24.8,15 24.8,18.1 25.9,18.1 	"/>
	<path fill="#FFFFFF" d="M31.9,21.9h2v1.1H35V19h-4v4.1h1V21.9z M32,20h2v1.1h-2V20z"/>
	<rect x="29.9" y="24.1" fill="#FFFFFF" width="7" height="1"/>
	<polygon fill="#FFFFFF" points="38.9,25.1 39.8,18.1 40,18.1 40.9,25 40.9,27 41.9,27 41.9,25 41,18.1 43.4,18.1 43.4,17.1 
		40.9,17.1 40.5,17.1 39,17.1 37.9,25 37.9,27 38.9,27 	"/>
</g>
</svg>
