<svg width="62" height="62" xmlns="http://www.w3.org/2000/svg"><g transform="matrix(-1 0 0 1 61 1)" fill="none" fill-rule="evenodd"><circle stroke="#FFF" cx="30" cy="30" r="30"/><path d="M32.5 29a.5.5 0 100 1 .5.5 0 000-1zm-3-4a.5.5 0 100 1 .5.5 0 000-1zm-6 16a.5.5 0 100 1 .5.5 0 000-1z" fill="#FFF" fill-rule="nonzero"/><path d="M41.474 38.887l-7.426-13.376v-7.096a1.76 1.76 0 001.157-1.657c0-.97-.779-1.758-1.735-1.758h-6.94c-.956 0-1.735.789-1.735 1.758a1.76 1.76 0 001.157 1.657v7.096l-7.426 13.376a4.11 4.11 0 00.034 4.082A4 4 0 0022.054 45h15.892a4 4 0 003.494-2.03 4.11 4.11 0 00.034-4.083zm-14.44-12.936a.592.592 0 00.075-.287v-7.148h.578c.32 0 .578-.263.578-.586a.582.582 0 00-.578-.586H26.53a.583.583 0 01-.578-.586c0-.323.26-.586.578-.586h6.94c.319 0 .578.263.578.586 0 .323-.26.586-.578.586h-1.157a.582.582 0 00-.578.586c0 .323.259.586.578.586h.578v7.148c0 .1.026.2.075.287l3.408 6.14c-2.081-.17-4.156.256-6.061 1.256-2.45 1.284-5.178 1.51-7.75.658l4.471-8.054zm13.408 16.427a2.857 2.857 0 01-2.496 1.45H22.054a2.857 2.857 0 01-2.496-1.45 2.936 2.936 0 01-.024-2.916l2.452-4.418a10.952 10.952 0 004.225.62 11.114 11.114 0 004.633-1.276c1.954-1.026 4.104-1.38 6.233-1.03l3.39 6.104c.508.917.5 2.007-.025 2.916z" fill="#FFF" fill-rule="nonzero"/><path d="M27.5 29c-.827 0-1.5.673-1.5 1.5s.673 1.5 1.5 1.5 1.5-.673 1.5-1.5-.673-1.5-1.5-1.5zm0 2a.5.5 0 11.001-1.001A.5.5 0 0127.5 31zm9.91 10H25.59c-.325 0-.59.224-.59.5s.265.5.59.5h11.82c.325 0 .59-.224.59-.5s-.265-.5-.59-.5z" fill="#FFF" fill-rule="nonzero"/></g></svg>